<svg width="99" height="98" viewBox="0 0 99 98" fill="none" xmlns="http://www.w3.org/2000/svg">
<rect x="0.333496" width="98" height="98" rx="49" fill="url(#paint0_linear_11_86912)" fill-opacity="0.05"/>
<rect x="12.3335" y="12" width="74" height="74" rx="37" fill="url(#paint1_linear_11_86912)" fill-opacity="0.1"/>
<rect x="12.8335" y="12.5" width="73" height="73" rx="36.5" stroke="url(#paint2_linear_11_86912)" stroke-opacity="0.2"/>
<path d="M49.3335 42.625C47.5731 42.625 46.146 44.0521 46.146 45.8125C46.146 47.5729 47.5731 49 49.3335 49C51.0939 49 52.521 47.5729 52.521 45.8125C52.521 44.0521 51.0939 42.625 49.3335 42.625Z" fill="#CAFF33"/>
<path fill-rule="evenodd" clip-rule="evenodd" d="M34.4585 38.9062C34.4585 37.4392 35.6477 36.25 37.1147 36.25H61.5522C63.0193 36.25 64.2085 37.4392 64.2085 38.9062V52.7188C64.2085 54.1858 63.0193 55.375 61.5522 55.375H37.1147C35.6477 55.375 34.4585 54.1858 34.4585 52.7188V38.9062ZM44.021 45.8125C44.021 42.8785 46.3995 40.5 49.3335 40.5C52.2675 40.5 54.646 42.8785 54.646 45.8125C54.646 48.7465 52.2675 51.125 49.3335 51.125C46.3995 51.125 44.021 48.7465 44.021 45.8125ZM58.896 44.75C58.3092 44.75 57.8335 45.2257 57.8335 45.8125V45.8231C57.8335 46.4099 58.3092 46.8856 58.896 46.8856H58.9066C59.4934 46.8856 59.9691 46.4099 59.9691 45.8231V45.8125C59.9691 45.2257 59.4934 44.75 58.9066 44.75H58.896ZM38.7085 45.8125C38.7085 45.2257 39.1842 44.75 39.771 44.75H39.7816C40.3684 44.75 40.8441 45.2257 40.8441 45.8125V45.8231C40.8441 46.4099 40.3684 46.8856 39.7816 46.8856H39.771C39.1842 46.8856 38.7085 46.4099 38.7085 45.8231V45.8125Z" fill="#CAFF33"/>
<path d="M35.521 57.5C34.9342 57.5 34.4585 57.9757 34.4585 58.5625C34.4585 59.1493 34.9342 59.625 35.521 59.625C43.1711 59.625 50.5805 60.6481 57.6207 62.5644C59.3073 63.0235 61.021 61.7738 61.021 59.9864V58.5625C61.021 57.9757 60.5453 57.5 59.9585 57.5H35.521Z" fill="#CAFF33"/>
<defs>
<linearGradient id="paint0_linear_11_86912" x1="49.3335" y1="0" x2="49.3335" y2="98" gradientUnits="userSpaceOnUse">
<stop stop-color="#CAFF33"/>
<stop offset="1" stop-color="#CAFF33" stop-opacity="0"/>
</linearGradient>
<linearGradient id="paint1_linear_11_86912" x1="49.3335" y1="-37" x2="49.3335" y2="203" gradientUnits="userSpaceOnUse">
<stop stop-color="#CAFF33"/>
<stop offset="0.467671" stop-color="#CAFF33" stop-opacity="0"/>
</linearGradient>
<linearGradient id="paint2_linear_11_86912" x1="49.3335" y1="-116.5" x2="49.3335" y2="153" gradientUnits="userSpaceOnUse">
<stop stop-color="#CAFF33"/>
<stop offset="0.716291" stop-color="#CAFF33" stop-opacity="0"/>
</linearGradient>
</defs>
</svg>
