<svg width="104" height="37" viewBox="0 0 104 37" fill="none" xmlns="http://www.w3.org/2000/svg">
<path d="M10.0002 17.4999L20.0002 7.49992L30.0002 17.4999L20.0002 27.4999L10.0002 17.4999Z" fill="#CAFF33"/>
<path d="M36.6668 10.8333L30.0002 17.4999V7.49992H20.0002L26.6668 0.833252H36.6668V10.8333Z" fill="#CAFF33"/>
<path d="M36.6668 24.1666L30.0002 17.4999V27.4999H20.0002L26.6668 34.1666H36.6668V24.1666Z" fill="#CAFF33"/>
<path d="M3.3335 24.1666L10.0002 17.4999V27.4999H20.0002L13.3335 34.1666H3.3335L3.3335 24.1666Z" fill="#CAFF33"/>
<path d="M3.3335 10.8333L10.0002 17.4999V7.49992H20.0002L13.3335 0.833252H3.3335L3.3335 10.8333Z" fill="#CAFF33"/>
<path d="M54.9989 17.4985C55.7712 17.9099 56.3756 18.4756 56.8122 19.1956C57.2487 19.9155 57.467 20.7469 57.467 21.6897C57.467 23.1639 56.9549 24.3896 55.9307 25.3667C54.9065 26.3438 53.6556 26.8323 52.1781 26.8323H44.6226V8.83325H51.624C53.068 8.83325 54.2853 9.31323 55.2759 10.2732C56.2833 11.216 56.787 12.3988 56.787 13.8216C56.787 15.3815 56.191 16.6071 54.9989 17.4985ZM51.624 11.6103H47.5189V16.3414H51.624C52.2621 16.3414 52.7994 16.1186 53.2359 15.6729C53.6724 15.2101 53.8907 14.6444 53.8907 13.9758C53.8907 13.3073 53.6724 12.7502 53.2359 12.3045C52.7994 11.8417 52.2621 11.6103 51.624 11.6103ZM52.1781 24.0553C52.8497 24.0553 53.4122 23.8153 53.8655 23.3354C54.3356 22.8382 54.5707 22.2383 54.5707 21.5355C54.5707 20.8326 54.3356 20.2412 53.8655 19.7613C53.4122 19.2641 52.8497 19.0156 52.1781 19.0156H47.5189V24.0553H52.1781Z" fill="white"/>
<path d="M69.9144 13.9758H72.6344V26.8323H69.9144V24.981C68.8902 26.4381 67.4211 27.1666 65.507 27.1666C63.7776 27.1666 62.3001 26.5152 61.0744 25.2124C59.8487 23.8925 59.2359 22.2897 59.2359 20.4041C59.2359 18.5013 59.8487 16.8985 61.0744 15.5958C62.3001 14.293 63.7776 13.6416 65.507 13.6416C67.4211 13.6416 68.8902 14.3615 69.9144 15.8015V13.9758ZM63.0892 23.3611C63.8448 24.1325 64.7934 24.5182 65.9351 24.5182C67.0769 24.5182 68.0255 24.1325 68.7811 23.3611C69.5366 22.5725 69.9144 21.5869 69.9144 20.4041C69.9144 19.2213 69.5366 18.2442 68.7811 17.4728C68.0255 16.6843 67.0769 16.29 65.9351 16.29C64.7934 16.29 63.8448 16.6843 63.0892 17.4728C62.3337 18.2442 61.9559 19.2213 61.9559 20.4041C61.9559 21.5869 62.3337 22.5725 63.0892 23.3611Z" fill="white"/>
<path d="M82.4285 13.6416C83.8724 13.6416 85.0394 14.113 85.9292 15.0558C86.8191 15.9986 87.2641 17.2928 87.2641 18.9384V26.8323H84.5441V19.2213C84.5441 18.2613 84.2922 17.5242 83.7885 17.01C83.2848 16.4957 82.5964 16.2386 81.7233 16.2386C80.7663 16.2386 79.9939 16.5471 79.4063 17.1642C78.8186 17.7642 78.5248 18.6899 78.5248 19.9412V26.8323H75.8048V13.9758H78.5248V15.6215C79.3475 14.3015 80.6487 13.6416 82.4285 13.6416Z" fill="white"/>
<path d="M103.667 26.8323H100.217L93.2654 18.2699V26.8323H90.3691V8.83325H93.2654V16.9071L99.9647 8.83325H103.415L96.2876 17.6014L103.667 26.8323Z" fill="white"/>
</svg>
