<svg width="479" height="60" viewBox="0 0 479 60" fill="none" xmlns="http://www.w3.org/2000/svg">
<line y1="29.5" x2="189.333" y2="29.5" stroke="#262626"/>
<path d="M216.111 28.5883L216.11 28.5911C214.928 32.0841 214.334 35.4598 214.334 38.7158V47.8238C214.334 49.2045 215.453 50.3238 216.834 50.3238H228.103C229.484 50.3238 230.603 49.2045 230.603 47.8238L230.603 38.6069L230.603 38.6027C230.568 34.4487 231.23 30.6661 232.582 27.2484C233.744 24.3556 235.134 21.5615 236.753 18.8658C237.448 17.7087 237.144 16.1863 236.003 15.4264L229.977 11.4104C229.061 10.8006 227.832 10.8491 226.999 11.6089C224.828 13.5883 222.844 15.9257 221.045 18.6179L221.045 18.6189C218.971 21.7397 217.326 25.0631 216.111 28.5883ZM242.99 28.5883L242.989 28.5911C241.808 32.0841 241.214 35.4598 241.214 38.7158V47.8238C241.214 49.2045 242.333 50.3238 243.714 50.3238H254.982C256.363 50.3238 257.482 49.2045 257.482 47.8238L257.482 38.6069L257.482 38.6027C257.448 34.4489 258.11 30.6664 259.461 27.2488C260.623 24.3559 262.013 21.5616 263.632 18.8658C264.327 17.7087 264.023 16.1863 262.883 15.4264L256.856 11.4104C255.941 10.8006 254.711 10.8491 253.878 11.6089C251.707 13.5883 249.723 15.9257 247.925 18.6179L247.924 18.6189C245.851 21.7397 244.206 25.0631 242.99 28.5883Z" fill="url(#paint0_linear_11_89086)" stroke="#CAFF33"/>
<line x1="289.333" y1="29.5" x2="478.667" y2="29.5" stroke="#262626"/>
<defs>
<linearGradient id="paint0_linear_11_89086" x1="239.54" y1="11.0002" x2="239.54" y2="49.8238" gradientUnits="userSpaceOnUse">
<stop stop-color="#CAFF33"/>
<stop offset="1" stop-color="#191919"/>
</linearGradient>
</defs>
</svg>
